<svg width="8" height="13" viewBox="0 0 8 13" fill="none" xmlns="http://www.w3.org/2000/svg">
<path d="M7.33353 6.03176L1.99337 0.691706C1.86986 0.568097 1.70499 0.5 1.52918 0.5C1.35338 0.5 1.1885 0.568097 1.06499 0.691706L0.671726 1.08487C0.415825 1.34107 0.415825 1.75745 0.671726 2.01326L5.15598 6.49751L0.66675 10.9867C0.543239 11.1104 0.475044 11.2751 0.475044 11.4508C0.475044 11.6267 0.543239 11.7915 0.66675 11.9152L1.06002 12.3083C1.18362 12.4319 1.3484 12.5 1.52421 12.5C1.70001 12.5 1.86489 12.4319 1.9884 12.3083L7.33353 6.96336C7.45733 6.83936 7.52533 6.6738 7.52494 6.49781C7.52533 6.32112 7.45733 6.15566 7.33353 6.03176Z" fill="white"/>
</svg>
